<svg version="1.1" xmlns="http://www.w3.org/2000/svg" xmlns:xlink="http://www.w3.org/1999/xlink" x="0px" y="0px" width="299px"
	 height="209.8px" viewBox="0 0 299 209.8" style="enable-background:new 0 0 299 209.8;" xml:space="preserve">
<style type="text/css">
	.st0{fill:#FFFFFF;}
</style>
<defs>
</defs>
<g>
	<g>
		<path class="st0" d="M292.9,209.8c-2.3,0-4.4-1.3-5.5-3.4c-0.4-0.7-28.5-52.9-146.2-54.7v52c0,2.3-1.3,4.5-3.4,5.5
			c-2.1,1-4.6,0.8-6.5-0.6L2.4,109.8c-1.5-1.2-2.4-3-2.4-4.9c0-1.9,0.9-3.7,2.4-4.9L131.3,1.3c1.9-1.4,4.4-1.7,6.5-0.6
			c2.1,1,3.4,3.2,3.4,5.5v54.8c3.1-0.2,7.2-0.4,11.9-0.4c43.9,0,145.9,14,145.9,143.1c0,2.9-2,5.3-4.8,6
			C293.8,209.8,293.3,209.8,292.9,209.8z"/>
	</g>
</g>
</svg>
