<svg height="511pt" viewBox="0 0 511 511.99999" width="511pt" xmlns="http://www.w3.org/2000/svg"><path d="m437.519531 437.023438c-68.992187 68.992187-167.585937 90.375-254.910156 64.128906-39.214844-11.785156-76.160156-33.15625-107.132813-64.128906-24.101562-24.101563-42.390624-51.8125-54.867187-81.386719-39.292969-93.136719-21.003906-204.785157 54.867187-280.65625 25.511719-25.507813 55.066407-44.507813 86.605469-57.003907 92.054688-36.460937 200.980469-17.453124 275.4375 57.003907 20.15625 20.15625 36.25 42.839843 48.28125 67.035156 47.625 95.78125 31.53125 215.195313-48.28125 295.007813zm0 0" fill="#9f8a8a"/><path d="m437.515625 437.019531c-56.429687 56.4375-132.6875 81.023438-206.367187 73.726563 56.835937-5.617188 112.152343-30.203125 155.664062-73.726563 79.816406-79.804687 95.90625-199.226562 48.28125-295-12.027344-24.203125-28.128906-46.878906-48.28125-67.03125-43.527344-43.527343-98.839844-68.113281-155.675781-73.730469 73.691406-7.296874 149.949219 17.289063 206.378906 73.730469 20.164063 20.148438 36.253906 42.828125 48.28125 67.03125 47.636719 95.769531 31.535156 215.195313-48.28125 295zm0 0" fill="#83727a"/><path d="m206.769531 476.992188-24.160156 24.160156c-39.214844-11.785156-76.160156-33.15625-107.132813-64.128906-24.101562-24.101563-42.390624-51.8125-54.867187-81.386719l71.523437-71.527344c11.234376-11.230469 29.601563-10.996094 40.519532.738281 10.414062 11.175782 9.617187 28.761719-1.175782 39.554688l-2.464843 2.464844c-15.292969 15.289062-22.941407 35.34375-22.949219 55.394531 0 20.046875 7.640625 40.089843 22.941406 55.386719 5.167969 5.167968 11.960938 7.761718 18.738282 7.761718 6.777343 0 13.570312-2.59375 18.738281-7.761718 10.792969-10.792969 28.371093-11.597657 39.554687-1.195313 11.722656 10.929687 11.96875 29.304687.734375 40.539063zm0 0" fill="#fdb659"/><path d="m444.769531 236.375c8.71875 8.71875 13.054688 20.132812 13.0625 31.535156 0 11.414063-4.355469 22.828125-13.070312 31.546875-8.695313 8.695313-20.109375 13.0625-31.535157 13.0625-11.40625-.023437-22.820312-4.359375-31.523437-13.0625-14.734375-14.734375-38.605469-14.734375-53.347656 0l-39.3125 39.320313c-8.714844 8.707031-20.128907 13.054687-31.542969 13.066406-11.414062-.011719-22.828125-4.359375-31.535156-13.066406-17.421875-17.417969-17.410156-45.648438.007812-63.070313l54.347656-54.34375c6.136719-6.160156 9.21875-14.238281 9.21875-22.292969 0-8.066406-3.089843-16.132812-9.230468-22.273437-12.3125-12.320313-32.265625-12.332031-44.566406-.007813l-12.796876 12.792969-5.953124 5.957031c-9.6875 9.671876-22.378907 14.515626-35.058594 14.515626-12.691406 0-25.375-4.84375-35.058594-14.515626-9.675781-9.695312-14.515625-22.378906-14.515625-35.058593 0-12.703125 4.839844-25.375 14.515625-35.058594 29.101562-29.101563 34.179688-73.15625 15.207031-107.449219 22.269531-8.820312 45.535157-14.394531 69.054688-16.710937 20.222656-2.011719 40.640625-1.609375 60.792969 1.195312 53.261718 7.394531 104.636718 31.574219 145.585937 72.527344 20.164063 20.148437 36.253906 42.835937 48.277344 67.035156l-41.023438 41.023438c-14.730469 14.730469-14.730469 38.613281 0 53.332031zm0 0" fill="#7cfcce"/><path d="m485.796875 142.019531-36.085937 36.085938c-3.917969-12.304688-8.792969-24.371094-14.617188-36.085938-12.027344-24.203125-28.128906-46.882812-48.28125-67.035156-43.523438-43.523437-98.839844-68.109375-155.675781-73.726563 73.695312-7.296874 149.949219 17.285157 206.378906 73.726563 20.164063 20.152344 36.253906 42.832031 48.28125 67.035156zm0 0" fill="#34e8b1"/><path d="m329.625 102.5c-7.253906 7.253906-16.753906 10.878906-26.261719 10.878906-9.507812 0-19.007812-3.625-26.261719-10.878906-5.394531-5.398438-12.484374-8.105469-19.570312-8.105469-7.089844 0-14.179688 2.707031-19.574219 8.105469l-29.023437 29.023438c-12.167969 12.164062-12.167969 31.894531 0 44.058593l14.011718 14.003907-5.953124 5.953124c-9.6875 9.675782-22.378907 14.515626-35.058594 14.515626-12.691406 0-25.375-4.839844-35.058594-14.515626-9.675781-9.691406-14.515625-22.375-14.515625-35.058593 0-12.703125 4.839844-25.371094 14.515625-35.054688 29.101562-29.105469 34.179688-73.15625 15.207031-107.453125 22.269531-8.820312 45.535157-14.390625 69.054688-16.710937 20.222656-2.007813 40.640625-1.605469 60.792969 1.195312l37.695312 37.695313c17.214844 17.214844 17.214844 45.132812 0 62.347656zm0 0" fill="#fdb659"/><path d="m312.882812 23.410156c-26.054687-12-53.722656-19.378906-81.746093-22.148437 20.222656-2.011719 40.640625-1.609375 60.792969 1.195312zm0 0" fill="#fd9e28"/><path d="m376.621094 378.457031-15.875-15.871093c-6.496094-6.5-6.496094-17.035157 0-23.53125 6.5-6.5 17.035156-6.5 23.53125 0l15.875 15.875c6.5 6.496093 6.5 17.03125 0 23.527343-6.496094 6.5-17.03125 6.5-23.53125 0zm0 0" fill="#7cfcce"/><path d="m52.292969 229.894531 15.875-15.875c6.5-6.496093 17.035156-6.496093 23.53125 0 6.5 6.5 6.5 17.035157 0 23.53125l-15.875 15.875c-6.496094 6.5-17.03125 6.5-23.53125 0-6.496094-6.496093-6.496094-17.03125 0-23.53125zm0 0" fill="#fdb659"/><path d="m418.335938 272.742188c-4.269532 0-7.773438-3.460938-7.773438-7.726563 0-4.269531 3.410156-7.726563 7.679688-7.726563h.09375c4.265624 0 7.726562 3.457032 7.726562 7.726563 0 4.265625-3.460938 7.726563-7.726562 7.726563zm0 0" fill="#9f8a8a"/><path d="m393.609375 272.742188c-4.265625 0-7.773437-3.460938-7.773437-7.726563 0-4.269531 3.414062-7.726563 7.679687-7.726563h.09375c4.269531 0 7.726563 3.457032 7.726563 7.726563 0 4.265625-3.457032 7.726563-7.726563 7.726563zm0 0" fill="#34e8b1"/><path d="m285.761719 73.308594c-4.265625 0-7.773438-3.457032-7.773438-7.726563 0-4.265625 3.414063-7.722656 7.679688-7.722656h.09375c4.269531 0 7.726562 3.457031 7.726562 7.722656 0 4.269531-3.457031 7.726563-7.726562 7.726563zm0 0" fill="#fd9e28"/><path d="m265.769531 58.527344c-4.246093 0-7.75-3.429688-7.769531-7.683594-.023438-4.269531 3.367188-7.746094 7.636719-7.769531h.09375.042969c4.246093 0 7.699218 3.433593 7.722656 7.683593.023437 4.269532-3.417969 7.746094-7.683594 7.769532-.015625 0-.027344 0-.042969 0zm0 0" fill="#9f8a8a"/><path d="m215.0625 48.414062c-4.269531 0-7.773438-3.460937-7.773438-7.726562s3.414063-7.726562 7.679688-7.726562h.09375c4.269531 0 7.726562 3.460937 7.726562 7.726562s-3.460937 7.726562-7.726562 7.726562zm0 0" fill="#fd9e28"/><path d="m81.769531 366.480469c-4.246093 0-7.75-3.429688-7.769531-7.683594-.023438-4.265625 3.367188-7.742187 7.636719-7.769531h.09375.042969c4.246093 0 7.699218 3.433594 7.722656 7.6875.023437 4.265625-3.417969 7.742187-7.683594 7.765625-.015625 0-.027344 0-.042969 0zm0 0" fill="#9f8a8a"/><path d="m330.730469 179.671875-7.898438-7.898437c-6.496093-6.496094-6.496093-17.03125 0-23.53125 6.5-6.496094 17.035157-6.496094 23.53125 0l7.898438 7.898437c6.496093 6.5 6.496093 17.035156 0 23.53125-6.5 6.496094-17.035157 6.496094-23.53125 0zm0 0" fill="#fdb659"/></svg>