<svg width="33" height="33" viewBox="0 0 33 33" fill="none" xmlns="http://www.w3.org/2000/svg">
<path d="M20.2725 14.8806C20.7463 15.4807 21.1924 16.1005 21.6109 16.737C22.2229 15.525 22.7278 14.2572 23.1187 12.9467C23.752 10.8239 24.0732 8.63653 24.0732 6.44519V5.12402C24.0732 3.78914 22.9911 2.70703 21.6562 2.70703C20.3213 2.70703 19.2392 3.78914 19.2392 5.12402V6.44519C19.2392 8.30956 18.9415 10.1718 18.3672 11.9519C18.8844 12.9477 19.4955 13.8967 20.1951 14.7828L20.2725 14.8806Z" fill="#FAF76B"/>
<path d="M23.1277 19.3598C23.996 21.0785 24.6782 22.8871 25.1593 24.7497C25.7082 23.7092 26.4539 22.7689 27.3708 21.985C30.6001 19.2237 32.4521 15.3472 32.4521 11.3496V6.41309C32.4521 5.0782 31.37 3.99609 30.0351 3.99609C28.7002 3.99609 27.6181 5.0782 27.6181 6.41309V11.2911C27.6181 13.927 26.3993 16.4719 24.2742 18.2733C23.8708 18.6152 23.4886 18.9781 23.1277 19.3598Z" fill="#FAF76B"/>
<path d="M32.0332 31.0664H24.0698C23.998 25.6486 22.1184 20.3385 18.7561 16.0801L18.6777 15.981C15.9226 12.4917 14.4053 8.12089 14.4053 3.67381V2.41697C14.4053 1.06488 13.2893 -0.0314721 11.9301 0.000690003C10.6106 0.0318853 9.57129 1.14241 9.57129 2.46229V3.67381C9.57129 9.20299 11.4595 14.6396 14.8885 18.9824L14.9669 19.0815C17.6554 22.4865 19.1644 26.7309 19.2358 31.0664H15.6956C15.7081 29.3494 15.9712 27.6392 16.4698 25.9949C15.8382 23.9949 14.859 22.1064 13.5691 20.4349C11.832 23.696 10.8831 27.3896 10.8614 31.0664H8.92818C8.94313 28.2925 9.43832 25.5178 10.3788 22.8845C9.84605 21.7948 9.17329 20.7701 8.36963 19.8396C6.44293 17.6087 5.38184 14.7425 5.38184 11.769V6.41307C5.38184 5.07818 4.29973 3.99608 2.96484 3.99608C1.62996 3.99608 0.547852 5.07818 0.547852 6.41307V11.4645C0.547852 15.7559 2.03897 19.8673 4.74659 23.0412C6.19536 24.7394 6.99316 26.9061 6.99316 29.1423V31.0664H0.966797C0.432867 31.0664 0 31.4993 0 32.0332C0 32.5671 0.432867 33 0.966797 33H32.0332C32.5671 33 33 32.5671 33 32.0332C33 31.4993 32.5671 31.0664 32.0332 31.0664Z" fill="#F7C49D"/>
</svg>
